<?xml version="1.0" encoding="utf-8"?>
<!-- Generator: Adobe Illustrator 16.0.0, SVG Export Plug-In . SVG Version: 6.00 Build 0)  -->
<!DOCTYPE svg PUBLIC "-//W3C//DTD SVG 1.1//EN" "http://www.w3.org/Graphics/SVG/1.1/DTD/svg11.dtd">
<svg version="1.1" id="Layer_1" xmlns="http://www.w3.org/2000/svg" xmlns:xlink="http://www.w3.org/1999/xlink" x="0px" y="0px"
	 width="40px" height="40px" viewBox="0 0 40 40" enable-background="new 0 0 40 40" xml:space="preserve">
<g>
	<path fill-rule="evenodd" clip-rule="evenodd" fill="#FFFFFF" d="M22.632,1.42c0.381,0.205,0.508,0.553,0.581,0.955
		c0.154,0.853,0.346,1.699,0.498,2.552c0.039,0.214,0.121,0.317,0.327,0.368c1.419,0.352,2.755,0.914,4.01,1.667
		c0.17,0.103,0.292,0.098,0.456-0.017c0.813-0.566,1.634-1.119,2.454-1.673c0.532-0.36,0.806-0.335,1.257,0.116
		c0.944,0.94,1.888,1.883,2.829,2.828c0.433,0.435,0.459,0.718,0.115,1.229c-0.547,0.811-1.094,1.621-1.654,2.423
		c-0.126,0.181-0.156,0.315-0.033,0.521c0.739,1.245,1.301,2.568,1.646,3.977c0.055,0.219,0.166,0.306,0.393,0.348
		c0.923,0.169,1.845,0.363,2.766,0.554c0.527,0.11,0.72,0.35,0.721,0.895c0.004,1.37,0.004,2.739,0,4.109
		c-0.002,0.535-0.199,0.774-0.732,0.885c-0.932,0.194-1.864,0.389-2.802,0.562c-0.207,0.038-0.29,0.131-0.336,0.314
		c-0.354,1.433-0.933,2.772-1.672,4.048c-0.059,0.103-0.041,0.309,0.027,0.412c0.542,0.827,1.105,1.641,1.659,2.461
		c0.371,0.547,0.343,0.811-0.13,1.284c-0.925,0.927-1.849,1.851-2.775,2.776c-0.481,0.48-0.739,0.503-1.314,0.11
		c-0.79-0.534-1.58-1.065-2.363-1.611c-0.191-0.134-0.33-0.165-0.55-0.033c-1.231,0.742-2.547,1.291-3.942,1.639
		c-0.211,0.053-0.315,0.146-0.357,0.383c-0.167,0.925-0.362,1.845-0.555,2.765c-0.111,0.534-0.35,0.732-0.884,0.733
		c-1.369,0.004-2.739,0.004-4.109,0c-0.545-0.001-0.785-0.193-0.895-0.719c-0.194-0.934-0.392-1.865-0.561-2.803
		c-0.041-0.227-0.149-0.307-0.341-0.354c-1.408-0.35-2.731-0.909-3.977-1.649c-0.204-0.122-0.339-0.094-0.52,0.032
		c-0.802,0.561-1.612,1.108-2.423,1.654c-0.512,0.346-0.794,0.319-1.229-0.113c-0.953-0.951-1.904-1.901-2.854-2.855
		c-0.417-0.42-0.444-0.706-0.112-1.198c0.561-0.833,1.123-1.662,1.694-2.486c0.115-0.163,0.123-0.285,0.019-0.455
		c-0.752-1.255-1.314-2.591-1.668-4.01c-0.051-0.205-0.152-0.289-0.367-0.328c-0.865-0.155-1.724-0.346-2.589-0.506
		c-0.39-0.072-0.721-0.208-0.917-0.574c0-1.614,0-3.23,0-4.845c0.196-0.367,0.527-0.502,0.917-0.574
		c0.864-0.159,1.722-0.353,2.587-0.504c0.24-0.042,0.325-0.157,0.376-0.363c0.349-1.395,0.902-2.707,1.637-3.941
		c0.13-0.218,0.101-0.359-0.033-0.551c-0.545-0.781-1.077-1.572-1.611-2.361C4.905,8.919,4.927,8.663,5.409,8.18
		c0.923-0.925,1.848-1.851,2.774-2.774c0.472-0.472,0.736-0.5,1.283-0.131c0.81,0.548,1.619,1.097,2.422,1.652
		c0.166,0.114,0.293,0.152,0.488,0.034c1.251-0.756,2.585-1.317,4.006-1.667c0.209-0.052,0.286-0.158,0.325-0.37
		c0.154-0.853,0.343-1.699,0.499-2.552c0.073-0.401,0.201-0.749,0.581-0.953C19.401,1.42,21.017,1.42,22.632,1.42z M9.001,33.684
		c0.833-0.565,1.698-1.141,2.547-1.735c0.366-0.257,0.708-0.283,1.084-0.042c1.434,0.917,2.98,1.566,4.643,1.931
		c0.435,0.096,0.67,0.337,0.751,0.78c0.179,0.969,0.386,1.933,0.583,2.899c1.08,0,2.129,0,3.2,0
		c0.188-0.938,0.392-1.869,0.554-2.805c0.089-0.516,0.349-0.797,0.857-0.903c1.609-0.337,3.097-0.972,4.473-1.862
		c0.445-0.287,0.818-0.259,1.244,0.045c0.824,0.59,1.671,1.145,2.481,1.693c0.762-0.766,1.503-1.507,2.263-2.267
		c-0.572-0.846-1.154-1.719-1.754-2.58c-0.248-0.355-0.264-0.692-0.032-1.053c0.932-1.441,1.582-3,1.948-4.675
		c0.094-0.424,0.343-0.639,0.769-0.72c0.969-0.181,1.933-0.386,2.903-0.583c0-1.076,0-2.124,0-3.2
		c-0.929-0.185-1.845-0.386-2.768-0.543c-0.541-0.093-0.839-0.36-0.953-0.902c-0.325-1.571-0.938-3.032-1.805-4.378
		c-0.32-0.494-0.301-0.899,0.041-1.37c0.582-0.798,1.119-1.63,1.651-2.415c-0.768-0.764-1.51-1.503-2.271-2.262
		c-0.844,0.57-1.719,1.15-2.578,1.751c-0.359,0.25-0.691,0.261-1.054,0.029c-1.431-0.922-2.976-1.573-4.639-1.937
		c-0.435-0.095-0.669-0.335-0.753-0.78c-0.178-0.969-0.385-1.932-0.582-2.901c-1.079,0-2.128,0-3.2,0
		c-0.188,0.94-0.392,1.869-0.553,2.805c-0.088,0.515-0.347,0.797-0.858,0.904c-1.607,0.337-3.096,0.972-4.473,1.861
		c-0.444,0.287-0.819,0.259-1.242-0.043C10.657,7.839,9.809,7.283,9,6.735C8.236,7.498,7.496,8.239,6.734,9
		c0.566,0.833,1.14,1.699,1.736,2.548c0.256,0.365,0.284,0.707,0.042,1.084c-0.925,1.444-1.57,3.005-1.942,4.678
		c-0.094,0.426-0.344,0.638-0.769,0.717c-0.968,0.18-1.932,0.386-2.9,0.583c0,1.079,0,2.128,0,3.2
		c0.94,0.188,1.869,0.392,2.806,0.554c0.516,0.089,0.794,0.348,0.902,0.857c0.339,1.608,0.972,3.097,1.863,4.473
		c0.288,0.445,0.258,0.818-0.044,1.244c-0.589,0.824-1.145,1.671-1.692,2.479C7.499,32.181,8.24,32.923,9.001,33.684z"/>
	<path fill-rule="evenodd" clip-rule="evenodd" fill="#FFFFFF" d="M26.602,27.269c1.286-1.165,2.197-2.542,2.688-4.164
		c0.965-3.194,0.425-6.144-1.625-8.782c-1.183-1.522-2.693-2.614-4.546-3.201c-0.316-0.1-0.642-0.221-0.682-0.579
		c-0.025-0.227,0.057-0.509,0.19-0.697c0.188-0.265,0.503-0.248,0.805-0.161c1.369,0.398,2.6,1.059,3.693,1.969
		c2.097,1.747,3.456,3.96,3.91,6.65c0.586,3.452-0.257,6.568-2.6,9.193c-2.496,2.798-5.677,4.014-9.398,3.637
		c-3.132-0.319-5.675-1.799-7.598-4.295c-1.604-2.087-2.368-4.477-2.215-7.09c0.239-4.089,2.187-7.177,5.75-9.212
		c0.568-0.324,1.197-0.547,1.813-0.78c0.626-0.236,1.05-0.091,1.202,0.357c0.155,0.457-0.094,0.814-0.727,1.021
		c-1.78,0.58-3.255,1.598-4.447,3.039c-2.804,3.391-2.853,8.469-0.103,11.905c0.327,0.408,0.693,0.785,1.088,1.229
		c0.959-2.837,2.875-4.461,5.791-4.912c-1.241-0.234-2.251-0.83-2.975-1.858c-0.727-1.032-0.963-2.182-0.719-3.417
		c0.419-2.123,2.366-3.611,4.561-3.51c2.144,0.1,3.927,1.814,4.138,3.998c0.186,1.905-0.967,4.237-3.845,4.797
		C23.72,22.844,25.641,24.445,26.602,27.269z M20.199,29.753c1.734-0.021,3.342-0.447,4.832-1.315
		c0.203-0.118,0.256-0.229,0.208-0.466c-0.5-2.366-2.596-4.083-5.013-4.091c-2.421-0.01-4.524,1.692-5.041,4.058
		c-0.058,0.271,0.016,0.387,0.24,0.516C16.91,29.306,18.505,29.731,20.199,29.753z M20.217,15.074
		c-1.588-0.007-2.917,1.307-2.941,2.907c-0.023,1.596,1.318,2.953,2.925,2.959c1.589,0.007,2.919-1.307,2.941-2.907
		C23.166,16.438,21.823,15.082,20.217,15.074z"/>
	<path fill-rule="evenodd" clip-rule="evenodd" fill="#FFFFFF" d="M20.938,9.922c0.01,0.382-0.33,0.732-0.717,0.74
		c-0.383,0.007-0.734-0.333-0.741-0.716c-0.006-0.384,0.332-0.734,0.718-0.74C20.58,9.199,20.93,9.536,20.938,9.922z"/>
</g>
</svg>
