<?xml version="1.0" encoding="utf-8"?>
<!-- Generator: Adobe Illustrator 16.0.0, SVG Export Plug-In . SVG Version: 6.00 Build 0)  -->
<!DOCTYPE svg PUBLIC "-//W3C//DTD SVG 1.1//EN" "http://www.w3.org/Graphics/SVG/1.1/DTD/svg11.dtd">
<svg version="1.1" id="Layer_1" xmlns="http://www.w3.org/2000/svg" xmlns:xlink="http://www.w3.org/1999/xlink" x="0px" y="0px"
	 width="40px" height="40px" viewBox="0 0 40 40" enable-background="new 0 0 40 40" xml:space="preserve">
<g>
	<path fill-rule="evenodd" clip-rule="evenodd" fill="#FFFFFF" d="M0.83,35.568c0-1.439,0-2.881,0-4.322
		c0.024-0.053,0.062-0.104,0.073-0.16c0.146-0.746,0.485-1.391,1.006-1.943c0.156-0.168,0.303-0.346,0.448-0.512
		c-0.212-0.225-0.45-0.455-0.669-0.705c-0.473-0.547-0.679-1.217-0.858-1.898c0-1.441,0-2.883,0-4.324
		c0.024-0.055,0.062-0.102,0.073-0.158c0.146-0.749,0.485-1.393,1.006-1.947c0.156-0.167,0.303-0.343,0.448-0.51
		c-0.212-0.223-0.45-0.455-0.669-0.706c-0.473-0.546-0.679-1.217-0.858-1.898c0-1.441,0-2.882,0-4.323
		c0.239-0.566,0.411-1.171,0.727-1.689c1.567-2.576,3.174-5.127,4.765-7.688c0.459-0.739,1.073-1.302,1.876-1.639
		C8.514,1.012,8.851,0.932,9.18,0.828c7.156,0,14.313,0,21.471,0c0.031,0.02,0.059,0.052,0.092,0.058
		c1.268,0.218,2.182,0.93,2.844,2.011c0.807,1.32,1.662,2.611,2.441,3.948C37.048,8.6,38.399,10.17,39,12.161
		c0,1.441,0,2.882,0,4.323c-0.107,0.338-0.159,0.71-0.335,1.007c-0.348,0.584-0.766,1.128-1.155,1.691
		c0.189,0.203,0.458,0.445,0.669,0.73c0.211,0.284,0.382,0.604,0.531,0.927c0.127,0.276,0.194,0.575,0.29,0.864
		c0,1.441,0,2.883,0,4.324c-0.107,0.34-0.159,0.711-0.335,1.008c-0.348,0.584-0.766,1.127-1.165,1.707
		c0.498,0.406,0.952,0.951,1.215,1.641c0.107,0.281,0.189,0.574,0.285,0.863c0,1.441,0,2.883,0,4.322
		c-0.022,0.059-0.058,0.113-0.067,0.172c-0.169,0.982-0.685,1.748-1.434,2.383c-0.564,0.48-1.237,0.693-1.929,0.877
		c-10.438,0-20.874,0-31.311,0c-0.045-0.02-0.088-0.053-0.134-0.063c-1.007-0.168-1.795-0.691-2.445-1.469
		C1.215,36.91,1.012,36.248,0.83,35.568z M19.954,10.37c-3.813,0-7.627,0-11.44,0c-1.192,0-2.385,0-3.577,0
		c-1.561,0-2.497,1.174-2.496,2.326c0,1.105-0.003,2.21,0.002,3.315c0.002,0.499,0.168,0.946,0.467,1.345
		c0.56,0.745,1.334,0.963,2.226,0.963c9.851-0.006,19.701-0.003,29.551-0.005c0.237,0,0.472-0.014,0.706-0.038
		c0.948-0.1,1.915-1.016,1.958-1.962c0.057-1.214,0.028-2.433,0.029-3.649c0.001-0.16-0.02-0.324-0.061-0.478
		c-0.301-1.146-1.219-1.816-2.496-1.816C29.867,10.369,24.912,10.37,19.954,10.37z M19.954,19.912c-1.429,0-2.858,0-4.286,0
		c-3.553,0-7.106,0.009-10.658-0.004c-1.534-0.006-2.566,1.076-2.572,2.369c-0.005,1.094-0.001,2.186,0.005,3.279
		c0.004,0.498,0.168,0.945,0.469,1.344c0.56,0.746,1.333,0.961,2.224,0.961c9.852-0.004,19.701-0.002,29.551-0.004
		c0.237,0,0.473-0.014,0.708-0.039c0.948-0.1,1.913-1.018,1.957-1.963c0.056-1.215,0.027-2.434,0.028-3.65
		c0.001-0.158-0.02-0.32-0.061-0.477c-0.301-1.147-1.22-1.815-2.497-1.815C29.866,19.911,24.909,19.912,19.954,19.912z
		 M19.904,29.455c-2.311,0-4.621,0-6.932,0c-2.671,0-5.341,0.004-8.012-0.002c-1.546-0.002-2.52,1.137-2.521,2.342
		c-0.001,1.104,0,2.209,0.006,3.314c0.002,0.502,0.172,0.945,0.473,1.344c0.563,0.742,1.342,0.953,2.23,0.951
		c9.84-0.004,19.677-0.002,29.516-0.004c0.235,0,0.472-0.016,0.706-0.039c0.979-0.092,1.946-1.031,1.987-2.014
		c0.05-1.164,0.034-2.332,0.036-3.5c0-0.195-0.027-0.398-0.077-0.588c-0.308-1.145-1.221-1.803-2.505-1.805
		C29.842,29.453,24.873,29.455,19.904,29.455z M4.472,8.786c10.318,0,20.571,0,30.865,0c-0.074-0.129-0.13-0.234-0.193-0.335
		c-0.943-1.517-1.915-3.017-2.819-4.557c-0.614-1.042-1.459-1.489-2.664-1.483c-4.98,0.026-9.963,0.01-14.944,0.01
		c-1.589,0-3.18,0.005-4.771-0.001c-0.875-0.003-1.637,0.263-2.12,1.015C6.7,5.187,5.61,6.963,4.472,8.786z"/>
	<path fill-rule="evenodd" clip-rule="evenodd" fill="#FFFFFF" d="M27.031,13.565c-1.998,0-3.997,0-5.995,0
		c-0.112,0-0.225,0.006-0.334-0.008c-0.479-0.063-0.78-0.373-0.784-0.795c-0.002-0.436,0.316-0.758,0.806-0.811
		c0.1-0.012,0.2-0.005,0.299-0.005c4.034,0,8.068-0.001,12.103,0.003c0.196,0,0.403,0.011,0.586,0.075
		c0.336,0.117,0.515,0.385,0.51,0.744c-0.007,0.357-0.189,0.618-0.532,0.726c-0.174,0.054-0.365,0.068-0.55,0.069
		C31.103,13.567,29.068,13.565,27.031,13.565z"/>
	<path fill-rule="evenodd" clip-rule="evenodd" fill="#FFFFFF" d="M27.088,15.144c2.087,0,4.175-0.004,6.262,0.002
		c0.661,0.001,1.092,0.604,0.783,1.123c-0.116,0.196-0.378,0.325-0.599,0.432c-0.135,0.064-0.316,0.035-0.477,0.035
		c-3.989,0.001-7.977,0.001-11.966,0c-0.161,0-0.323-0.004-0.484-0.026c-0.413-0.057-0.698-0.389-0.69-0.788
		c0.008-0.399,0.314-0.728,0.722-0.771c0.112-0.012,0.223-0.006,0.335-0.006C23.014,15.144,25.051,15.144,27.088,15.144z"/>
	<path fill-rule="evenodd" clip-rule="evenodd" fill="#FFFFFF" d="M6.409,16.726c-1.316,0.012-2.393-1.056-2.396-2.377
		c-0.003-1.308,1.09-2.406,2.39-2.398c1.286,0.006,2.357,1.071,2.389,2.374C8.821,15.611,7.728,16.714,6.409,16.726z M7.173,14.35
		c0.003-0.429-0.346-0.779-0.775-0.78c-0.421-0.001-0.789,0.359-0.791,0.775c0,0.402,0.382,0.787,0.784,0.791
		C6.807,15.138,7.171,14.772,7.173,14.35z"/>
	<path fill-rule="evenodd" clip-rule="evenodd" fill="#FFFFFF" d="M27.063,21.488c1.998,0,3.997,0,5.996,0
		c0.111,0,0.224-0.006,0.334,0.004c0.496,0.043,0.82,0.354,0.831,0.789c0.01,0.447-0.321,0.775-0.833,0.824
		c-0.087,0.008-0.172,0.002-0.26,0.002c-4.035,0-8.069,0-12.104,0c-0.725,0-1.11-0.283-1.11-0.811
		c0.002-0.527,0.386-0.809,1.112-0.809C23.041,21.488,25.053,21.488,27.063,21.488z"/>
	<path fill-rule="evenodd" clip-rule="evenodd" fill="#FFFFFF" d="M27.109,24.686c2.062,0,4.126,0.002,6.187-0.002
		c0.334,0,0.614,0.082,0.801,0.375c0.301,0.465,0.04,1.09-0.505,1.186c-0.17,0.031-0.346,0.035-0.519,0.035
		c-4.001,0-8.002,0-12.003,0c-0.161,0-0.324-0.006-0.482-0.031c-0.392-0.059-0.67-0.383-0.67-0.768c0-0.383,0.287-0.721,0.669-0.781
		c0.123-0.018,0.249-0.012,0.372-0.012C23.01,24.686,25.059,24.686,27.109,24.686z"/>
	<path fill-rule="evenodd" clip-rule="evenodd" fill="#FFFFFF" d="M6.406,26.268c-1.318,0.012-2.393-1.059-2.394-2.377
		c-0.001-1.313,1.093-2.408,2.392-2.398c1.289,0.01,2.36,1.076,2.387,2.377C8.819,25.16,7.724,26.26,6.406,26.268z M6.396,23.113
		c-0.422,0.002-0.791,0.363-0.789,0.779c0.002,0.402,0.386,0.785,0.789,0.785c0.415,0,0.776-0.367,0.777-0.787
		C7.174,23.463,6.825,23.113,6.396,23.113z"/>
	<path fill-rule="evenodd" clip-rule="evenodd" fill="#FFFFFF" d="M27.064,32.65c-2.011,0.002-4.022,0.002-6.032,0
		c-0.727,0-1.112-0.279-1.114-0.807c0-0.529,0.385-0.813,1.109-0.813c4.035,0,8.068,0,12.104,0c0.049,0,0.099-0.002,0.148,0
		c0.584,0.018,0.954,0.34,0.944,0.826c-0.01,0.473-0.372,0.789-0.94,0.791C31.21,32.654,29.138,32.65,27.064,32.65z"/>
	<path fill-rule="evenodd" clip-rule="evenodd" fill="#FFFFFF" d="M27.072,34.23c2.075,0,4.15,0.002,6.224-0.004
		c0.334,0,0.614,0.082,0.801,0.375c0.301,0.469,0.04,1.088-0.505,1.184c-0.17,0.033-0.347,0.035-0.52,0.035
		c-4,0.002-8.001,0.002-12.003,0c-0.16,0-0.323-0.004-0.481-0.029c-0.392-0.059-0.67-0.383-0.67-0.768
		c0-0.383,0.287-0.721,0.669-0.781c0.123-0.018,0.25-0.012,0.373-0.012C22.997,34.229,25.033,34.23,27.072,34.23z"/>
	<path fill-rule="evenodd" clip-rule="evenodd" fill="#FFFFFF" d="M6.4,35.814c-1.321,0.004-2.393-1.07-2.387-2.389
		c0.005-1.313,1.103-2.408,2.396-2.391c1.294,0.02,2.362,1.088,2.381,2.383C8.811,34.713,7.715,35.809,6.4,35.814z M6.412,32.656
		c-0.423-0.008-0.792,0.342-0.802,0.762c-0.011,0.4,0.363,0.791,0.771,0.803c0.41,0.012,0.784-0.352,0.793-0.771
		C7.182,33.02,6.841,32.664,6.412,32.656z"/>
</g>
</svg>
