<?xml version="1.0" encoding="utf-8"?>
<!-- Generator: Adobe Illustrator 16.0.0, SVG Export Plug-In . SVG Version: 6.00 Build 0)  -->
<!DOCTYPE svg PUBLIC "-//W3C//DTD SVG 1.1//EN" "http://www.w3.org/Graphics/SVG/1.1/DTD/svg11.dtd">
<svg version="1.1" id="Layer_1" xmlns="http://www.w3.org/2000/svg" xmlns:xlink="http://www.w3.org/1999/xlink" x="0px" y="0px"
	 width="40px" height="40px" viewBox="0 0 40 40" enable-background="new 0 0 40 40" xml:space="preserve">
<g>
	<path fill-rule="evenodd" clip-rule="evenodd" fill="#FFFFFF" d="M10.168,39.325c-0.43-0.202-0.914-0.198-1.36-0.354
		c-2.538-0.872-4.057-2.624-4.306-5.293c-0.293-3.179,0.112-6.299,1.311-9.273c0.713-1.77,1.782-3.3,3.526-4.246
		c1.114-0.604,2.308-0.861,3.56-0.885c0.429-0.008,0.807,0.179,1.162,0.402c0.566,0.354,1.121,0.726,1.69,1.076
		c3.229,1.981,6.463,1.981,9.69-0.008c0.451-0.279,0.907-0.55,1.331-0.866c0.771-0.577,1.621-0.672,2.544-0.538
		c2.513,0.364,4.297,1.725,5.502,3.919c1.081,1.969,1.541,4.112,1.794,6.313c0.126,1.108,0.17,2.217,0.146,3.328
		c-0.067,3.498-2.314,5.957-5.799,6.351c-0.053,0.006-0.097,0.014-0.109,0.073C23.956,39.325,17.063,39.325,10.168,39.325z
		 M20.597,37.053c0-0.002,0-0.004,0-0.006c3.207,0,6.412,0.027,9.618-0.008c2.642-0.029,4.273-1.716,4.273-4.351
		c0-1.225-0.049-2.449-0.234-3.663c-0.246-1.582-0.593-3.141-1.373-4.566c-0.679-1.244-1.575-2.24-2.988-2.673
		c-0.842-0.258-1.635-0.353-2.363,0.304c-0.279,0.25-0.623,0.426-0.947,0.62c-3.486,2.123-7.085,2.396-10.809,0.658
		c-0.964-0.45-1.806-1.099-2.713-1.639c-0.138-0.083-0.261-0.186-0.448-0.173c-0.765,0.048-1.496,0.218-2.169,0.588
		c-1.328,0.725-2.059,1.946-2.595,3.285c-0.987,2.463-1.209,5.062-1.139,7.688c0.038,1.432,0.667,2.592,1.954,3.33
		c0.835,0.476,1.751,0.606,2.696,0.606C14.438,37.053,17.519,37.053,20.597,37.053z"/>
	<path fill-rule="evenodd" clip-rule="evenodd" fill="#FFFFFF" d="M21.305,0.539c0.471,0.099,0.942,0.191,1.411,0.299
		c3.465,0.811,6.393,4.071,6.858,7.603c0.304,2.307-0.031,4.488-1.337,6.439c-1.731,2.591-4.129,4.101-7.297,4.314
		c-4.171,0.28-7.627-2.155-9.163-5.556c-0.739-1.638-0.942-3.373-0.665-5.143c0.533-3.396,2.466-5.743,5.528-7.205
		c0.79-0.375,1.638-0.568,2.507-0.675c0.066-0.008,0.154,0.025,0.188-0.076C19.993,0.539,20.649,0.539,21.305,0.539z M27.418,9.934
		c0.076-3.908-3.214-7.087-6.935-7.128c-3.916-0.044-7.088,2.987-7.209,6.929c-0.118,3.85,3.085,7.202,7.029,7.227
		C24.123,16.987,27.433,13.833,27.418,9.934z"/>
</g>
</svg>
